<svg xmlns="http://www.w3.org/2000/svg" xmlns:xlink="http://www.w3.org/1999/xlink" width="1080" zoomAndPan="magnify" viewBox="0 0 810 809.999993" height="1080" preserveAspectRatio="xMidYMid meet" version="1.0"><path fill="#000000" d="M 405.175781 0.277344 C 181.363281 0.277344 0 181.632812 0 405.429688 C 0 606.425781 146.636719 773.398438 338.523438 804.96875 L 338.523438 530.308594 L 235.386719 530.308594 L 235.386719 409.988281 L 338.523438 409.988281 L 338.523438 322.644531 C 338.523438 227.933594 415.347656 163.742188 510.066406 163.742188 C 552.160156 163.742188 578.472656 170.054688 578.472656 170.054688 L 578.472656 271.082031 L 510.066406 271.082031 C 481.648438 271.082031 458.496094 294.230469 458.496094 322.644531 L 458.496094 409.988281 L 569 409.988281 L 553.5625 530.308594 L 458.496094 530.308594 L 458.496094 806.722656 C 656.699219 780.414062 809.648438 610.636719 809.648438 405.429688 C 810 181.632812 628.636719 0.277344 405.175781 0.277344 Z M 405.175781 0.277344 " fill-opacity="1" fill-rule="nonzero"/></svg>