<svg xmlns="http://www.w3.org/2000/svg" xmlns:xlink="http://www.w3.org/1999/xlink" width="1080" zoomAndPan="magnify" viewBox="0 0 810 809.999993" height="1080" preserveAspectRatio="xMidYMid meet" version="1.0"><path fill="#000000" d="M 405 0 C 181.285156 0 0 181.285156 0 405 C 0 628.714844 181.285156 810 405 810 C 628.714844 810 810 628.714844 810 405 C 809.648438 181.285156 628.363281 0 405 0 Z M 641.335938 313.832031 C 641.335938 313.832031 648.351562 468.816406 530.53125 564.894531 C 354.15625 708.3125 163.753906 591.894531 163.753906 591.894531 C 163.753906 591.894531 210.039062 592.597656 251.066406 581.726562 C 291.738281 570.855469 321.195312 544.207031 321.195312 544.207031 C 321.195312 544.207031 276.664062 535.089844 253.519531 518.261719 C 230.375 501.429688 221.257812 469.167969 221.257812 469.167969 C 221.257812 469.167969 236.6875 470.570312 246.15625 470.222656 C 255.972656 469.871094 267.546875 465.3125 267.546875 465.3125 C 267.546875 465.3125 235.636719 461.453125 205.832031 428.144531 C 182.335938 401.84375 184.089844 358.011719 184.089844 358.011719 C 184.089844 358.011719 198.117188 366.429688 205.480469 368.183594 C 212.84375 370.285156 227.222656 370.285156 227.222656 370.285156 C 227.222656 370.285156 199.167969 353.804688 186.894531 310.675781 C 174.625 267.894531 198.117188 224.414062 198.117188 224.414062 C 198.117188 224.414062 239.84375 274.910156 301.558594 307.167969 C 363.273438 339.429688 421.480469 338.375 421.480469 338.375 C 421.480469 338.375 413.066406 312.777344 427.792969 274.910156 C 442.519531 237.039062 475.832031 209.6875 526.675781 205.832031 C 577.519531 201.625 610.128906 240.195312 610.128906 240.195312 C 610.128906 240.195312 625.910156 237.390625 643.792969 230.726562 C 661.675781 224.414062 679.558594 216 679.558594 216 C 679.558594 216 673.246094 235.285156 660.972656 250.363281 C 648.703125 265.441406 635.027344 274.558594 635.027344 274.558594 C 635.027344 274.558594 651.15625 273.507812 667.285156 268.949219 C 683.414062 264.390625 692.183594 259.832031 692.183594 259.832031 C 673.597656 290.6875 641.335938 313.832031 641.335938 313.832031 Z M 641.335938 313.832031 " fill-opacity="1" fill-rule="nonzero"/></svg>