<svg xmlns="http://www.w3.org/2000/svg" xmlns:xlink="http://www.w3.org/1999/xlink" width="1080" zoomAndPan="magnify" viewBox="0 0 810 809.999993" height="1080" preserveAspectRatio="xMidYMid meet" version="1.0"><path fill="#000000" d="M 405 0 C 181.285156 0 0 181.285156 0 405 C 0 628.714844 181.285156 810 405 810 C 628.714844 810 810 628.714844 810 405 C 809.648438 181.285156 628.363281 0 405 0 Z M 638.183594 518.261719 C 633.625 548.066406 607.675781 569.804688 577.519531 569.804688 L 232.128906 569.804688 C 201.972656 569.804688 176.027344 548.066406 171.46875 518.261719 C 167.257812 490.558594 163.050781 451.988281 162.703125 404.648438 C 163.050781 357.3125 166.910156 319.089844 171.46875 291.039062 C 176.027344 261.234375 201.972656 239.492188 232.128906 239.492188 L 577.519531 239.492188 C 607.675781 239.492188 633.625 261.234375 638.183594 291.039062 C 642.390625 318.742188 646.597656 357.3125 646.949219 404.648438 C 646.597656 451.988281 642.390625 490.558594 638.183594 518.261719 Z M 638.183594 518.261719 " fill-opacity="1" fill-rule="nonzero"/><path fill="#000000" d="M 353.804688 339.078125 L 353.804688 470.570312 L 476.183594 405 Z M 353.804688 339.078125 " fill-opacity="1" fill-rule="nonzero"/></svg>